<svg width="18" height="15" viewBox="0 0 18 15" fill="none" xmlns="http://www.w3.org/2000/svg">
<path d="M9.97425 1.305C9.819 1.1505 9.75 0.95925 9.75 0.77175C9.75 0.37875 10.0553 0 10.515 0C10.7115 0 10.9065 0.0750001 11.0557 0.2235L13.893 3.06075C13.3147 3.1485 12.768 3.333 12.2745 3.60525L9.97425 1.305ZM9.75 7.875C9.75 6.9075 10.0357 6.00825 10.521 5.25H0V6.75H0.48225C0.8835 6.75 1.248 6.978 1.42425 7.338L4.5 15H13.5L14.4083 12.7388C11.817 12.6248 9.75 10.494 9.75 7.875ZM8.02575 1.305C8.181 1.1505 8.25 0.95925 8.25 0.77175C8.25 0.37875 7.94475 0 7.485 0C7.28925 0 7.0935 0.0750001 6.945 0.2235L3.41925 3.75H5.5815L8.02575 1.305ZM14.625 4.5C12.7605 4.5 11.25 6.01125 11.25 7.875C11.25 9.73875 12.7605 11.25 14.625 11.25C16.488 11.25 18 9.73875 18 7.875C18 6.01125 16.488 4.5 14.625 4.5ZM14.2733 9.363L13.0072 8.13525L13.5285 7.6125L14.2725 8.3175L15.8588 6.69075L16.3815 7.21275L14.2733 9.363Z" fill="#3A3541"/>
</svg>
