<svg width="16" height="15" viewBox="0 0 16 15" fill="none" xmlns="http://www.w3.org/2000/svg">
<path d="M14.7486 4.87354H1.25161C0.824861 4.87354 0.50086 5.22153 0.50086 5.62278C0.50086 5.71128 0.42211 5.18629 1.77136 13.617C1.82911 13.9815 2.14336 14.2485 2.51236 14.2485H13.4886C13.8576 14.2485 14.1719 13.9815 14.2296 13.617C15.5804 5.17954 15.4994 5.71204 15.4994 5.62204C15.4994 5.20354 15.1574 4.87354 14.7486 4.87354ZM14.0256 2.61079H2.00311C1.61011 2.61079 1.25236 2.92729 1.25236 3.36604C1.25236 3.42679 1.24486 3.37804 1.35736 4.12354H14.6714C14.7854 3.36454 14.7756 3.42529 14.7756 3.36679C14.7756 2.93179 14.4239 2.61079 14.0256 2.61079ZM2.04586 1.86079H13.9829C14.0264 1.53379 14.0241 1.54129 14.0241 1.49929C14.0241 0.996035 13.5929 0.748535 13.2734 0.748535H2.75536C2.35336 0.748535 2.00461 1.07329 2.00461 1.49854C2.00461 1.54054 2.00161 1.53079 2.04586 1.86079Z" fill="#3A3541"/>
</svg>
