<svg width="16" height="17" viewBox="0 0 16 17" fill="none" xmlns="http://www.w3.org/2000/svg">
<path fill-rule="evenodd" clip-rule="evenodd" d="M3.95135 2.45976L0.0108109 4.22127L0.00540532 10.5456L0 16.8699H8H16V10.5436V4.21738L12.0886 2.48959C9.9373 1.53932 8.11287 0.74754 8.03459 0.730026C7.95611 0.712513 6.1187 1.49089 3.95135 2.45976ZM9.72973 7.89694V9.73478H8H6.27027V7.89694V6.05911H8H9.72973V7.89694ZM7.08973 13.3564L7.15265 15.1402H5.30595H3.45946V13.4466C3.45946 12.5149 3.528 11.6842 3.61189 11.6003C3.69578 11.5166 4.49838 11.476 5.39568 11.5104L7.02703 11.5726L7.08973 13.3564ZM12.4951 13.3564L12.5581 15.1402H10.7114H8.86487V13.4466C8.86487 12.5149 8.93341 11.6842 9.0173 11.6003C9.10119 11.5166 9.90378 11.476 10.8011 11.5104L12.4324 11.5726L12.4951 13.3564Z" fill="#3A3541"/>
</svg>
