<svg width="386" height="319" viewBox="0 0 386 319" fill="none" xmlns="http://www.w3.org/2000/svg">
<mask id="mask0_2_717" style="mask-type:alpha" maskUnits="userSpaceOnUse" x="0" y="0" width="386" height="319">
<rect width="386" height="319" fill="#D9D9D9"/>
</mask>
<g mask="url(#mask0_2_717)">
<path fill-rule="evenodd" clip-rule="evenodd" d="M-26.456 -220.948C-23.0448 -253.293 -16.4408 -285.364 -6.64393 -316.651L315.946 -639.241C347.233 -649.038 379.305 -655.642 411.649 -659.053L-26.456 -220.948ZM125.366 189.446C138.565 201.916 152.283 213.519 166.45 224.254L856.851 -466.147C846.116 -480.314 834.513 -494.033 822.043 -507.231L125.366 189.446ZM267.103 283.127C249.924 275.664 233.084 267.177 216.675 257.664L890.261 -415.922C899.774 -399.513 908.261 -382.673 915.724 -365.494L267.103 283.127ZM328.73 305.135C349.299 310.968 370.174 315.439 391.21 318.547L951.144 -241.387C948.036 -262.424 943.565 -283.298 937.732 -303.867L328.73 305.135ZM553.663 315.621C525.874 320.758 497.729 323.495 469.561 323.831L956.429 -163.036C956.092 -134.868 953.355 -106.723 948.218 -78.9342L553.663 315.621ZM677.934 274.985C726.431 251.574 771.887 219.752 812.118 179.521C852.349 139.29 884.171 93.834 907.582 45.3371L677.934 274.985ZM778.941 -547.764L84.8328 146.344C73.1316 132.319 62.331 117.797 52.431 102.854L735.451 -580.166C750.394 -570.266 764.916 -559.466 778.941 -547.764ZM21.8665 49.7832L682.38 -610.731C664.98 -619.349 647.176 -626.876 629.071 -633.312L-0.715314 -3.52651C5.72083 14.5785 13.2481 32.3824 21.8665 49.7832ZM-18.9804 -68.8968C-23.5351 -90.9677 -26.5657 -113.29 -28.0722 -135.696L496.901 -660.669C519.307 -659.163 541.629 -656.132 563.7 -651.578L-18.9804 -68.8968Z" fill="#B8C8E1"/>
</g>
</svg>
