<svg width="16" height="13" viewBox="0 0 16 13" fill="none" xmlns="http://www.w3.org/2000/svg">
<path fill-rule="evenodd" clip-rule="evenodd" d="M7.32854 0.667358C6.55042 0.888798 5.8129 1.48361 5.50124 2.14131C5.14093 2.90176 5.21502 5.49405 5.60947 5.93064C5.75765 6.09466 5.87926 6.33191 5.87958 6.45803C5.8799 6.58399 6.02486 6.92478 6.20172 7.21525C6.6047 7.87731 6.62419 8.88436 6.24053 9.23192C6.0851 9.37272 5.34226 9.77367 4.5896 10.1227C3.83709 10.4719 3.06301 10.9302 2.86973 11.1415C2.46094 11.5879 2.1314 12.3739 2.26331 12.5876C2.31566 12.6724 4.74406 12.7353 7.97281 12.7353C11.2015 12.7353 13.63 12.6724 13.6823 12.5876C13.8142 12.3739 13.4847 11.5879 13.0759 11.1415C12.8826 10.9302 12.1085 10.4719 11.356 10.1227C10.6033 9.77367 9.86051 9.37272 9.70508 9.23192C9.18805 8.7634 9.41017 7.47492 10.2409 6.12273C10.6056 5.52921 10.7298 5.06488 10.5861 4.83247C10.504 4.69941 10.4933 4.44539 10.5624 4.26798C11.0621 2.9874 10.1495 1.12298 9.02296 1.12298C8.90023 1.12298 8.75382 0.977826 8.69761 0.800415C8.58502 0.444949 8.231 0.410596 7.32854 0.667358ZM3.50658 2.40743C2.50121 2.86434 2.18068 3.49689 2.21048 4.96488C2.22514 5.68194 2.3163 6.24175 2.43823 6.36384C2.55017 6.47593 2.68949 6.7585 2.74796 6.99188C2.80643 7.22509 2.91885 7.45588 2.99761 7.50459C3.2455 7.65813 3.1532 8.48099 2.85894 8.74114C2.70399 8.87823 2.205 9.1487 1.75047 9.3424C0.678413 9.79883 0.0584672 10.4473 0.0254485 11.1467L0 11.687L0.837225 11.7353C1.61324 11.7803 1.69168 11.7508 1.908 11.3318C2.26138 10.6473 2.699 10.3178 4.31772 9.51675C5.4571 8.95274 5.81032 8.70002 5.84995 8.42003C5.89504 8.10182 5.59771 7.39153 4.82443 5.97031C4.67706 5.6992 4.6194 5.03133 4.64049 3.83333C4.6748 1.86891 4.67915 1.87439 3.50658 2.40743ZM11.3054 3.74381C11.3404 5.37938 11.3339 5.41099 10.6913 6.71834C10.3342 7.44508 10.0655 8.20714 10.0945 8.4118C10.1356 8.70195 10.473 8.94516 11.6279 9.51675C13.2466 10.3178 13.6842 10.6473 14.0376 11.3318C14.2539 11.7508 14.3324 11.7803 15.1084 11.7353C15.8694 11.6913 15.95 11.6497 15.9933 11.2783C16.0751 10.5752 15.403 9.80415 14.3105 9.34772C13.7701 9.12193 13.2102 8.83936 13.0664 8.71985C12.7887 8.48906 12.7074 7.65362 12.948 7.50459C13.0268 7.45588 13.1392 7.22509 13.1977 6.99188C13.2561 6.7585 13.4028 6.46852 13.5238 6.34739C13.6802 6.19095 13.7359 5.72662 13.7171 4.74022C13.6923 3.43544 13.6638 3.3298 13.2387 2.96369C12.9902 2.74967 12.69 2.57452 12.5714 2.57452C12.453 2.57452 12.3144 2.46565 12.2633 2.3326C12.2116 2.19744 11.9721 2.09067 11.7203 2.09067H11.27L11.3054 3.74381Z" fill="#3A3541"/>
</svg>
