<svg width="16" height="18" viewBox="0 0 16 18" fill="none" xmlns="http://www.w3.org/2000/svg">
<path fill-rule="evenodd" clip-rule="evenodd" d="M3.608 0.830953C3.52627 0.912466 3.45946 1.54684 3.45946 2.24068V3.50187H1.72973H0V7.9343V12.3667H8H16V7.9343V3.50187H14.2806H12.5611L12.4969 2.15052L12.4324 0.799169L8.09449 0.74079C5.70854 0.708574 3.68973 0.749223 3.608 0.830953ZM10.7643 4.85322L10.7027 7.06944H8H5.2973L5.23568 4.85322L5.17405 2.63701H8H10.8259L10.7643 4.85322ZM5.18919 9.33971C5.35351 9.64695 5.35351 9.89733 5.18919 10.2046C4.78076 10.9678 3.45946 10.6374 3.45946 9.77214C3.45946 8.90684 4.78076 8.57647 5.18919 9.33971ZM8.64 9.22122C9.21449 9.91333 8.37081 10.9765 7.62162 10.5047C7.14119 10.2022 7.02378 9.62619 7.36 9.22122C7.69384 8.81884 8.30616 8.81884 8.64 9.22122ZM12.4095 9.39376C12.7336 9.91138 12.3384 10.509 11.6143 10.5959C10.8954 10.6822 10.4618 9.99182 10.8177 9.32674C11.107 8.78619 12.0541 8.82598 12.4095 9.39376ZM0 16.0424V17.7721H8H16V16.0424V14.3127H12.4845C9.20303 14.3127 8.95092 14.3414 8.69881 14.7451C8.55027 14.983 8.23589 15.1775 8 15.1775C7.76411 15.1775 7.44973 14.983 7.30119 14.7451C7.04908 14.3414 6.79697 14.3127 3.51546 14.3127H0V16.0424Z" fill="#3A3541"/>
</svg>
