<svg width="16" height="18" viewBox="0 0 16 18" fill="none" xmlns="http://www.w3.org/2000/svg">
<path fill-rule="evenodd" clip-rule="evenodd" d="M6.99351 0.302136C6.61838 0.463485 6.0893 0.892395 5.81773 1.25548L5.32411 1.91541H2.66205H0V9.82257V17.7297H8H16V9.82257V1.91541H13.3379H10.6759L10.1816 1.25463C9.71481 0.63039 8.56238 -0.017997 7.95287 0.000381775C7.80043 0.00508333 7.36865 0.140787 6.99351 0.302136ZM8.51978 1.9808C9.3306 2.56679 8.46854 4.02 7.62162 3.49535C7.08908 3.16538 7.01016 2.3206 7.48022 1.9808C7.69276 1.82736 7.92649 1.7017 8 1.7017C8.07351 1.7017 8.30724 1.82736 8.51978 1.9808ZM4.48649 7.09674C4.63524 7.21428 4.75676 7.60365 4.75676 7.96204C4.75676 9.25005 3.48065 9.84351 2.59459 8.96774C1.32649 7.71435 3.07741 5.98247 4.48649 7.09674ZM13.4054 8.00606V8.96774H10.2703H7.13514V8.00606V7.04438H10.2703H13.4054V8.00606ZM4.32432 12.4939V13.4556H3.45946H2.59459V12.4939V11.5322H3.45946H4.32432V12.4939ZM13.4054 12.4939V13.4556H10.2703H7.13514V12.4939V11.5322H10.2703H13.4054V12.4939Z" fill="#3A3541"/>
</svg>
