<svg width="16" height="16" viewBox="0 0 16 16" fill="none" xmlns="http://www.w3.org/2000/svg">
<path fill-rule="evenodd" clip-rule="evenodd" d="M0.782934 1.53158L0 2.33343L0.792492 3.56335C1.51076 4.67817 1.65108 4.79347 2.29085 4.7951C2.87611 4.79672 3.19763 4.99581 4.17273 5.96075L5.34897 7.12458L5.9017 6.57165L6.45463 6.01891L5.29081 4.84268C4.32586 3.86757 4.12678 3.54606 4.12515 2.96079C4.12352 2.32408 4.0074 2.1803 2.93956 1.49233C2.28861 1.07301 1.7131 0.729736 1.66084 0.729736C1.60857 0.729736 1.21345 1.0905 0.782934 1.53158ZM11.0837 1.06894C9.79441 1.70424 9.01859 3.33294 9.3822 4.64054C9.56644 5.30289 9.55058 5.322 5.17164 9.72779L0.776224 14.1502L1.63826 15.0121L2.5001 15.8741L5.09497 13.2852L7.68964 10.6962L10.2798 13.2866L12.8702 15.8768L14.0375 14.7095L15.205 13.5422L12.6142 10.9455L10.0234 8.34901L10.6487 7.72368C11.2318 7.14065 11.3267 7.11238 12.0505 7.30557C13.5747 7.71229 15.4435 6.53667 15.8999 4.88397C16.0914 4.19071 15.99 2.76333 15.7492 2.76333C15.6833 2.76333 15.1454 3.24143 14.5536 3.82609L13.4775 4.88864L12.6203 4.03128L11.7629 3.17412L12.8308 2.09265C13.4181 1.49803 13.8354 0.947941 13.7579 0.870461C13.4956 0.608127 11.7568 0.737057 11.0837 1.06894Z" fill="#3A3541"/>
</svg>
